<svg width="current" height="current" viewBox="0 0 22 22" fill="none" xmlns="http://www.w3.org/2000/svg">
<path d="M10.8125 10.75C10.8125 12.477 10.3155 14.0089 9.55009 15.0895C8.78341 16.1718 7.79366 16.75 6.78125 16.75C5.76884 16.75 4.77909 16.1718 4.01241 15.0895C3.24702 14.0089 2.75 12.477 2.75 10.75C2.75 9.02296 3.24702 7.4911 4.01241 6.41054C4.77909 5.32817 5.76884 4.75 6.78125 4.75C7.79366 4.75 8.78341 5.32817 9.55009 6.41054C10.3155 7.4911 10.8125 9.02296 10.8125 10.75Z" stroke="#363841" stroke-width="1.5"/>
<path d="M19.25 10.75C19.25 12.477 18.753 14.0089 17.9876 15.0895C17.2209 16.1718 16.2312 16.75 15.2188 16.75C14.2063 16.75 13.2166 16.1718 12.4499 15.0895C11.6845 14.0089 11.1875 12.477 11.1875 10.75C11.1875 9.02296 11.6845 7.4911 12.4499 6.41054C13.2166 5.32817 14.2063 4.75 15.2188 4.75C16.2312 4.75 17.2209 5.32817 17.9876 6.41054C18.753 7.4911 19.25 9.02296 19.25 10.75Z" stroke="#363841" stroke-width="1.5"/>
<path d="M7.125 10.75C7.125 12.427 6.00817 13.625 4.8125 13.625C3.61683 13.625 2.5 12.427 2.5 10.75C2.5 9.07295 3.61683 7.875 4.8125 7.875C6.00817 7.875 7.125 9.07295 7.125 10.75Z" fill="#363841" stroke="#363841"/>
<path d="M15.5625 10.75C15.5625 12.427 14.4457 13.625 13.25 13.625C12.0543 13.625 10.9375 12.427 10.9375 10.75C10.9375 9.07295 12.0543 7.875 13.25 7.875C14.4457 7.875 15.5625 9.07295 15.5625 10.75Z" fill="#363841" stroke="#363841"/>
</svg>
